<svg xmlns="http://www.w3.org/2000/svg" style="display: none;"><symbol id="electrical-appliance" viewBox="0 0 64 64"><title>electrical-appliance</title><path d="m19 35c-6.617 0-12 5.383-12 12s5.383 12 12 12 12-5.383 12-12-5.383-12-12-12zm0 22c-5.514 0-10-4.486-10-10s4.486-10 10-10 10 4.486 10 10-4.486 10-10 10z"/><path d="m6 29h14c.552 0 1-.448 1-1v-4c0-.552-.448-1-1-1h-14c-.552 0-1 .448-1 1v4c0 .552.448 1 1 1zm1-4h12v2h-12z"/><path d="m24 23h9v2h-9z"/><path d="m24 27h9v2h-9z"/><path d="m19 39c-4.411 0-8 3.589-8 8s3.589 8 8 8 8-3.589 8-8-3.589-8-8-8zm0 2c2.803 0 5.157 1.935 5.812 4.537-1.307-.795-3.119-.645-4.226.463l-.586.586c-.526.526-1.474.526-2 0l-.586-.586c-1.107-1.108-2.919-1.257-4.226-.463.655-2.602 3.009-4.537 5.812-4.537zm0 12c-2.871 0-5.274-2.028-5.861-4.725l.861-.861c.526-.526 1.474-.526 2 0l.586.586c.645.645 1.502 1 2.414 1s1.77-.355 2.414-1l.586-.586c.526-.526 1.474-.526 2 0l.861.861c-.587 2.697-2.99 4.725-5.861 4.725z"/><path d="m23 11h2v2h-2z"/><path d="m23 15h2v2h-2z"/><path d="m6.172 13h5.657v2h-5.657z" transform="matrix(.707 -.707 .707 .707 -7.264 10.465)"/><path d="m12.172 13h5.657v2h-5.657z" transform="matrix(.707 -.707 .707 .707 -5.506 14.707)"/><path d="m62 1h-30c-.552 0-1 .448-1 1v17h-2v-11c0-.552-.448-1-1-1h-24c-.552 0-1 .448-1 1v11h-1c-.552 0-1 .448-1 1v42c0 .552.448 1 1 1h34c.552 0 1-.448 1-1v-3h18v3c0 .552.448 1 1 1h4c.552 0 1-.448 1-1v-3h1c.552 0 1-.448 1-1v-56c0-.552-.448-1-1-1zm-1 2v2h-28v-2zm-28 4h28v16h-24v-3c0-.552-.448-1-1-1h-3zm-6 12h-6v-10h6zm-22-10h14v10h-14zm30 12v10h-32v-10zm-32 40v-28h32v28zm56 0h-2v-2h2zm-22-4v-32h24v32z"/><path d="m58 29h-4c-.552 0-1 .448-1 1v12c0 .552.448 1 1 1h4c.552 0 1-.448 1-1v-12c0-.552-.448-1-1-1zm-1 12h-2v-10h2z"/></symbol><symbol id="washing-machine" viewBox="0 0 512 512"><title>washing-machine</title><path d="M256,152c-74.991,0-136,61.009-136,136s61.009,136,136,136,136-61.009,136-136S330.991,152,256,152Zm88,136a88,88,0,1,1-88-88A88.1,88.1,0,0,1,344,288Zm10.824-32.406,15.8-3.161a120.235,120.235,0,0,1,0,71.134l-15.8-3.161a104.032,104.032,0,0,0,0-64.812ZM256,408A120,120,0,1,1,364.743,237.292l-16.22,3.247a104,104,0,1,0,0,94.922l16.22,3.247A120.154,120.154,0,0,1,256,408Z"/><path d="M438,16H74A26.03,26.03,0,0,0,48,42V488a8,8,0,0,0,8,8H456a8,8,0,0,0,8-8V42A26.03,26.03,0,0,0,438,16ZM64,128H448V448H64ZM448,42v70H208V32H438A10.011,10.011,0,0,1,448,42ZM74,32H192v80H64V42A10.011,10.011,0,0,1,74,32ZM448,480H64V464H448Z"/><path d="M88,96h80a8,8,0,0,0,8-8V72a24.027,24.027,0,0,0-24-24H104A24.027,24.027,0,0,0,80,72V88A8,8,0,0,0,88,96Zm8-24a8.009,8.009,0,0,1,8-8h48a8.009,8.009,0,0,1,8,8v8H96Z"/><path d="M232,96h96a8,8,0,0,0,8-8V56a8,8,0,0,0-8-8H232a8,8,0,0,0-8,8V88A8,8,0,0,0,232,96Zm8-32h80V80H240Z"/><path d="M264,248a8,8,0,0,0-8-8,48.055,48.055,0,0,0-48,48,8,8,0,0,0,16,0,32.036,32.036,0,0,1,32-32A8,8,0,0,0,264,248Z"/><path d="M296,280a8,8,0,0,0-8,8,32.036,32.036,0,0,1-32,32,8,8,0,0,0,0,16,48.055,48.055,0,0,0,48-48A8,8,0,0,0,296,280Z"/><circle cx="360" cy="72" r="8"/><circle cx="392" cy="72" r="8"/><circle cx="424" cy="72" r="8"/></symbol><symbol id="fridge" viewBox="0 0 128 128"><title>fridge</title><path d="m100.417 43v-36.135a6.758 6.758 0 0 0 -6.75-6.75h-59.334a6.758 6.758 0 0 0 -6.75 6.75v36.135a6.726 6.726 0 0 0 2.232 5 6.726 6.726 0 0 0 -2.232 5v61.13a6.758 6.758 0 0 0 6.75 6.75h.917v5.37a1.75 1.75 0 0 0 1.75 1.75h12.5a1.75 1.75 0 0 0 1.75-1.75v-5.37h25.5v5.37a1.75 1.75 0 0 0 1.75 1.75h12.5a1.75 1.75 0 0 0 1.75-1.75v-5.37h.917a6.758 6.758 0 0 0 6.75-6.75v-61.13a6.726 6.726 0 0 0 -2.232-5 6.726 6.726 0 0 0 2.232-5zm-52.667 81.5h-9v-3.62h9zm41.5 0h-9v-3.62h9zm7.667-71.5v61.13a3.254 3.254 0 0 1 -3.25 3.25h-59.334a3.254 3.254 0 0 1 -3.25-3.25v-61.13a3.254 3.254 0 0 1 3.25-3.25h59.334a3.254 3.254 0 0 1 3.25 3.25zm-62.584-6.75a3.254 3.254 0 0 1 -3.25-3.25v-36.135a3.254 3.254 0 0 1 3.25-3.25h59.334a3.254 3.254 0 0 1 3.25 3.25v36.135a3.254 3.254 0 0 1 -3.25 3.25z"/><path d="m88.658 12.682h-6.5a1.75 1.75 0 0 0 -1.75 1.75v21a1.75 1.75 0 0 0 1.75 1.75h6.5a1.75 1.75 0 0 0 1.75-1.75v-21a1.75 1.75 0 0 0 -1.75-1.75zm-1.75 21h-3v-17.5h3z"/><path d="m82.158 80.758h6.5a1.75 1.75 0 0 0 1.75-1.75v-21a1.75 1.75 0 0 0 -1.75-1.75h-6.5a1.75 1.75 0 0 0 -1.75 1.75v21a1.75 1.75 0 0 0 1.75 1.75zm1.75-21h3v17.5h-3z"/></symbol><symbol id="boiler" viewBox="0 0 511.728 511.728"><title>boiler</title><path d="m313.235 131.961c0-31.632-25.737-57.366-57.372-57.366s-57.372 25.734-57.372 57.366 25.737 57.366 57.372 57.366 57.372-25.734 57.372-57.366zm-99.743 0c0-23.361 19.008-42.366 42.372-42.366s42.372 19.005 42.372 42.366-19.008 42.366-42.372 42.366-42.372-19.005-42.372-42.366z"/><path d="m275.702 122.48c6.81-6.809-3.786-17.427-10.605-10.607l-15.037 15.035c-6.713 6.712 3.738 17.475 10.605 10.607z"/><path d="m416.686 50.273c0-15.023-10.043-28.458-24.422-32.67-22.437-6.574-69.991-17.603-136.4-17.603-15.982 0-32.011.681-47.642 2.023-9.595.824-8.324 15.772 1.283 14.945 15.206-1.306 30.803-1.968 46.359-1.968 64.536 0 110.517 10.649 132.182 16.998 8.031 2.353 13.64 9.868 13.64 18.276v250.348h-291.644v-250.132c0-8.461 5.672-15.996 13.793-18.322 11.309-3.239 23.561-6.107 36.416-8.525 9.464-1.78 6.705-16.528-2.773-14.741-13.31 2.503-26.019 5.48-37.772 8.847-14.521 4.159-24.663 17.623-24.663 32.742v327.726c0 15.023 10.043 28.458 24.422 32.67 5.667 1.661 12.942 3.605 21.713 5.585v18.281c0 10.837 6.984 20.214 17.38 23.333 7.447 2.233 18.809 5.175 33.661 7.673v38.741c0 9.63 15 9.644 15 0v-36.56c4.486.556 9.207 1.055 14.153 1.478v35.082c0 9.63 15 9.644 15 0v-34.09c6.213.293 12.708.461 19.493.461 6.55 0 13.051-.16 19.493-.475v34.104c0 9.63 15 9.644 15 0v-35.135c4.758-.42 9.477-.929 14.153-1.525v36.66c0 9.63 15 9.644 15 0v-38.899c3.651-.626 7.275-1.3 10.862-2.036 9.434-1.936 6.432-16.631-3.016-14.693-53.191 10.916-112.262 10.508-164.49-5.155-4.001-1.2-6.689-4.803-6.689-8.965v-15.181c25.125 4.743 58.83 8.919 99.687 8.919 40.222 0 74.192-4.317 99.687-9.174v15.295c0 9.63 15 9.644 15 0v-18.411c8.587-1.936 15.796-3.833 21.472-5.458 14.521-4.159 24.663-17.623 24.663-32.742v-327.727zm-28.793 346.048c-22.385 6.412-69.304 17.168-132.029 17.168-64.536 0-110.517-10.649-132.182-16.998-8.031-2.353-13.64-9.868-13.64-18.276v-62.595h291.644v62.38c0 8.461-5.672 15.995-13.793 18.321z"/><path d="m203.737 351.74c-9.652 0-9.668 15 0 15 9.651 0 9.667-15 0-15z"/><path d="m255.864 351.74c-9.652 0-9.668 15 0 15 9.652 0 9.668-15 0-15z"/><path d="m307.991 351.74c-9.652 0-9.668 15 0 15 9.652 0 9.668-15 0-15z"/></symbol><symbol id="air-conditioner" viewBox="0 0 510.909 510.909"><title>air-conditioner</title><path d="M475,100.486H121.478c-4.142,0-7.5,3.357-7.5,7.5s3.358,7.5,7.5,7.5H475c11.53,0,20.91,9.38,20.91,20.91v159.691 c0,11.53-9.38,20.91-20.91,20.91h-17.959v-48.867c0-4.143-3.358-7.5-7.5-7.5H61.368c-4.142,0-7.5,3.357-7.5,7.5v48.867H35.91 c-11.53,0-20.91-9.38-20.91-20.91V136.396c0-11.53,9.38-20.91,20.91-20.91h55.568c4.142,0,7.5-3.357,7.5-7.5s-3.358-7.5-7.5-7.5 H35.91c-19.801,0-35.91,16.109-35.91,35.91v159.691c0,19.801,16.109,35.91,35.91,35.91h78.071c4.142,0,7.5-3.357,7.5-7.5 c0-4.142-3.358-7.5-7.5-7.5H68.868v-13.184h298.061c4.142,0,7.5-3.357,7.5-7.5c0-4.143-3.358-7.5-7.5-7.5H68.868v-13.184h373.173 v13.184h-45.112c-4.142,0-7.5,3.357-7.5,7.5c0,4.143,3.358,7.5,7.5,7.5h45.112v13.184H143.98c-4.142,0-7.5,3.358-7.5,7.5 c0,4.143,3.358,7.5,7.5,7.5H475c19.801,0,35.91-16.109,35.91-35.91V136.396C510.909,116.596,494.8,100.486,475,100.486z"/><path d="M449.541,161.467c4.142,0,7.5-3.357,7.5-7.5c0-4.143-3.358-7.5-7.5-7.5H427.36c-4.142,0-7.5,3.357-7.5,7.5 c0,4.143,3.358,7.5,7.5,7.5H449.541z"/><path d="M393.139,161.467c4.142,0,7.5-3.357,7.5-7.5c0-4.143-3.358-7.5-7.5-7.5H251.183c-4.142,0-7.5,3.357-7.5,7.5 c0,4.143,3.358,7.5,7.5,7.5H393.139z"/><path d="M141.082,352.064c-4.142,0-7.5,3.357-7.5,7.5c0,0.223-0.241,22.457-21.047,37.245c-3.376,2.399-4.168,7.082-1.768,10.458 c1.463,2.059,3.773,3.156,6.12,3.156c1.503,0,3.021-0.451,4.339-1.388c27.046-19.224,27.357-48.246,27.357-49.472 C148.582,355.421,145.224,352.064,141.082,352.064z"/><path d="M194.783,352.064c-4.142,0-7.5,3.357-7.5,7.5v43.358c0,4.143,3.358,7.5,7.5,7.5c4.142,0,7.5-3.357,7.5-7.5v-43.358 C202.283,355.421,198.925,352.064,194.783,352.064z"/><path d="M257.564,352.064c-4.142,0-7.5,3.357-7.5,7.5v43.358c0,4.143,3.358,7.5,7.5,7.5c4.142,0,7.5-3.357,7.5-7.5v-43.358 C265.064,355.421,261.706,352.064,257.564,352.064z"/><path d="M398.375,396.809c-20.526-14.589-21.036-36.281-21.047-37.279c-0.018-4.127-3.369-7.466-7.5-7.466 c-4.142,0-7.5,3.357-7.5,7.5c0,1.226,0.311,30.248,27.357,49.472c1.318,0.937,2.836,1.388,4.339,1.388 c2.346-0.001,4.657-1.099,6.12-3.156C402.543,403.891,401.751,399.208,398.375,396.809z"/><path d="M316.126,352.064c-4.142,0-7.5,3.357-7.5,7.5v43.358c0,4.143,3.358,7.5,7.5,7.5c4.142,0,7.5-3.357,7.5-7.5v-43.358 C323.626,355.421,320.268,352.064,316.126,352.064z"/></symbol><symbol id="paint-roller" viewBox="0 0 480 480"><title>paint-roller</title><g> <g> <path d="M448,40h-56v-8c0-4.418-3.582-8-8-8h-24V8c0-4.418-3.582-8-8-8H64c-4.418,0-8,3.582-8,8v16H32c-4.418,0-8,3.582-8,8v64 c0,4.418,3.582,8,8,8h24v16c0,4.418,3.582,8,8,8h288c4.418,0,8-3.582,8-8v-16h24c4.418,0,8-3.582,8-8v-8h16v88H192 c-4.418,0-8,3.582-8,8v88h-8c-4.418,0-8,3.582-8,8v192c0,4.418,3.582,8,8,8h64c4.418,0,8-3.582,8-8V280c0-4.418-3.582-8-8-8h-8 v-48h216c4.418,0,8-3.582,8-8V48C456,43.582,452.418,40,448,40z M56,88H40V40h16V88z M344,112H72V16h272V112z M376,88h-16V40h16 V88z M232,464h-48V288h48V464z M440,208H224c-4.418,0-8,3.582-8,8v56h-16v-80h216c4.418,0,8-3.582,8-8V80c0-4.418-3.582-8-8-8h-24 V56h48V208z"/> </g> </g><g> <g> <path d="M112,80H96c-4.418,0-8,3.582-8,8s3.582,8,8,8h16c4.418,0,8-3.582,8-8S116.418,80,112,80z"/> </g> </g><g> <g> <path d="M320,80H144c-4.418,0-8,3.582-8,8s3.582,8,8,8h176c4.418,0,8-3.582,8-8S324.418,80,320,80z"/> </g> </g><g> <g> <path d="M112,176c-4.418,0-8-3.582-8-8c0-13.255-10.745-24-24-24s-24,10.745-24,24v32c0,13.255,10.745,24,24,24 c4.418,0,8,3.582,8,8c0,13.255,10.745,24,24,24s24-10.745,24-24v-32C136,186.745,125.255,176,112,176z M120,232 c0,4.418-3.582,8-8,8s-8-3.582-8-8c0-13.255-10.745-24-24-24c-4.418,0-8-3.582-8-8v-32c0-4.418,3.582-8,8-8s8,3.582,8,8 c0,13.255,10.745,24,24,24c4.418,0,8,3.582,8,8V232z"/> </g> </g><g> <g> <path d="M112,272c-13.255,0-24,10.745-24,24v32c0,13.255,10.745,24,24,24s24-10.745,24-24v-32C136,282.745,125.255,272,112,272z M120,328c0,4.418-3.582,8-8,8s-8-3.582-8-8v-32c0-4.418,3.582-8,8-8s8,3.582,8,8V328z"/> </g> </g></symbol><symbol id="water-tap" viewBox="0 0 512 512"><title>water-tap</title><path d="m497 312.888v-22.302c0-4.143-3.358-7.5-7.5-7.5s-7.5 3.357-7.5 7.5v22.296h-72v-66.772c0-10.052-8.178-18.23-18.23-18.23h-32.96v-72h63.39c32.974 0 59.8 26.826 59.8 59.8v39.906c0 4.142 3.358 7.5 7.5 7.5s7.5-3.358 7.5-7.5v-39.906c0-41.245-33.555-74.8-74.8-74.8h-65.29c-4.946-14.932-19.031-25.739-35.6-25.739h-24.869v-28.404c10.201-.45 18.653-7.723 20.903-17.357h75.156c14.089.062 26-11.889 26-26 0-14.336-11.664-26-26-26h-75.157c-2.324-9.947-11.26-17.38-21.905-17.38h-48.876c-10.645 0-19.581 7.433-21.905 17.38h-75.157c-14.231-.076-26 11.817-26 26 0 14.336 11.664 26 26 26h75.156c2.25 9.634 10.702 16.907 20.903 17.357v28.404h-24.869c-16.57 0-30.654 10.807-35.6 25.739h-56.38c-3.096-8.729-11.432-14.999-21.209-14.999s-18.113 6.27-21.209 14.999h-78.792c-4.142 0-7.5 3.358-7.5 7.5s3.358 7.5 7.5 7.5h77.5v72h-77.5c-4.142 0-7.5 3.358-7.5 7.5s3.358 7.5 7.5 7.5h78.79c3.096 8.73 11.432 15.001 21.21 15.001s18.115-6.271 21.21-15.001h56.378c4.945 14.934 19.03 25.742 35.601 25.742h12.681c4.142 0 7.5-3.357 7.5-7.5 0-4.142-3.358-7.5-7.5-7.5h-12.68c-11.23 0-20.563-8.27-22.233-19.039-.003-.028-.009-.054-.012-.081.305-1.379-.304-82.628.002-85.259.002-.016.005-.031.007-.047 1.663-10.777 11.001-19.055 22.236-19.055h100.62c11.236 0 20.573 8.278 22.236 19.055.002.016.005.031.007.047 1.161 9.98 1.013 76.513.002 85.259-.003.027-.01.054-.012.081-1.67 10.769-11.003 19.039-22.233 19.039h-52.939c-4.142 0-7.5 3.358-7.5 7.5 0 4.143 3.358 7.5 7.5 7.5h52.939c16.571 0 30.656-10.808 35.601-25.742h34.859c1.781 0 3.23 1.449 3.23 3.23v66.778c-8.282.065-15 6.817-15 15.113v14.761c0 8.337 6.783 15.12 15.12 15.12h101.76c8.337 0 15.12-6.783 15.12-15.12v-14.761c0-8.296-6.718-15.048-15-15.113zm-179.062-280.508h74.562c6.065 0 11 4.935 11 11 0 5.952-5.022 11.03-11 11h-74.562zm-93.876 22h-74.562c-6.065 0-11-4.935-11-11 0-5.986 5.005-11.027 11-11h74.562zm-109.062 181.001c0 4.136-3.364 7.5-7.5 7.5s-7.5-3.364-7.5-7.5v-87c0-4.136 3.364-7.5 7.5-7.5s7.5 3.364 7.5 7.5zm68.19-7.501h-53.19v-72h53.19zm98.251-112.739h-20.882v-28.378h20.882zm-34.879-43.378c-4.136 0-7.5-3.364-7.5-7.5v-41.763c0-4.136 3.364-7.5 7.5-7.5h48.876c4.136 0 7.5 3.364 7.5 7.5v41.763c0 4.136-3.364 7.5-7.5 7.5zm250.438 270.999c0 .066-.054.12-.12.12h-101.76c-.066 0-.12-.054-.12-.12v-14.761c0-.065.054-.119.12-.119h101.76c.066 0 .12.054.12.119zm-43.622 41.07c-4.069-4.021-10.688-4.021-14.755-.002-14.16 13.987-47.095 49.169-47.095 73.717 0 30.025 24.436 54.453 54.472 54.453s54.472-24.428 54.472-54.453c0-24.548-32.935-59.73-47.094-73.715zm-7.378 113.168c-21.765 0-39.472-17.698-39.472-39.453 0-9.324 10.415-30.446 39.472-59.881 29.06 29.436 39.472 50.556 39.472 59.881 0 21.755-17.707 39.453-39.472 39.453z"/></symbol><symbol id="carpenter" viewBox="0 0 511.999 511.999"><title>carpenter</title><g> <g> <path d="M214.155,407.934c-1.87-1.861-4.44-2.93-7.07-2.93c-2.64,0-5.22,1.07-7.08,2.93c-1.859,1.86-2.92,4.44-2.92,7.07 s1.061,5.21,2.92,7.07c1.87,1.86,4.44,2.93,7.08,2.93c2.62,0,5.2-1.07,7.07-2.93c1.859-1.86,2.92-4.44,2.92-7.07 S216.014,409.794,214.155,407.934z"/> </g> </g><g> <g> <path d="M141.948,405.004H75.12c-5.522,0-10,4.477-10,10c0,5.523,4.478,10,10,10h66.829c5.522,0,10-4.477,10-10 C151.948,409.481,147.471,405.004,141.948,405.004z"/> </g> </g><g> <g> <path d="M231.597,368.006h-75.338c-5.522,0-10,4.477-10,10c0,5.523,4.478,10,10,10h75.338c5.523,0,10-4.478,10-10 C241.597,372.482,237.119,368.006,231.597,368.006z"/> </g> </g><g> <g> <path d="M501.931,318.008H457.97v-1.587l24.283-24.282c1.875-1.875,2.929-4.419,2.929-7.071v-22.264c0-5.523-4.478-10-10-10 h-77.245c0.126-0.04,0.253-0.073,0.378-0.119l77.993-28.388c2.492-0.907,4.522-2.767,5.644-5.171 c1.12-2.404,1.24-5.154,0.333-7.646l-13.796-37.903c-1.218-3.346-4.123-5.792-7.628-6.422l-9.354-1.681l-1.936-5.317l5.043-3.716 c3.571-2.632,4.981-7.302,3.464-11.47l-32.367-88.927c-7.775-21.363-23.404-38.419-44.009-48.028 c-20.603-9.607-43.717-10.617-65.079-2.842l-28.549,10.391c-5.19,1.889-7.866,7.627-5.977,12.816l8.711,23.932 c1.889,5.189,7.626,7.863,12.815,5.977c12.505-4.551,26.378,1.92,30.93,14.422l9.021,24.784c1.354,3.721,1.179,7.746-0.495,11.333 c-1.673,3.588-4.644,6.311-8.364,7.665l-90.762,33.034c-1.796-1.437-3.773-2.672-5.911-3.669 c-7.02-3.273-14.895-3.618-22.173-0.968l-195.62,71.198c-15.025,5.469-22.801,22.143-17.331,37.168l16.717,45.931 c2.649,7.279,7.976,13.09,14.995,16.364c2.675,1.247,5.474,2.058,8.317,2.452H10.069c-5.522,0-10,4.477-10,10v119.994 c0,5.523,4.478,10,10,10h376.084l22.781,48.267c1.651,3.499,5.174,5.731,9.043,5.731c3.869,0,7.392-2.232,9.043-5.732 l22.78-48.266h52.131c5.522,0,10-4.477,10-10V328.008C511.93,322.485,507.453,318.008,501.931,318.008z M306.571,37.153 l-2.261-6.213l19.152-6.972c16.343-5.949,34.024-5.177,49.788,2.174c15.763,7.351,27.72,20.399,33.668,36.742l29.809,81.896 l-5.043,3.716c-3.571,2.632-4.981,7.302-3.464,11.47l6.462,17.752c1.218,3.346,4.123,5.792,7.628,6.422l9.354,1.681l8.409,23.103 l-59.2,21.547l-8.409-23.103l6.086-7.301c2.28-2.735,2.934-6.477,1.715-9.823l-6.462-17.752c-1.696-4.662-6.56-7.375-11.412-6.374 l-17.65,3.634l-6.686-18.369l-7.599-20.878c4.58-3.402,8.271-7.908,10.748-13.223c3.932-8.43,4.344-17.886,1.162-26.626 l-9.021-24.784C346.199,46.239,326.476,34.739,306.571,37.153z M332.158,138.709l13.322,36.604l-77.423,28.18l-13.322-36.604 L332.158,138.709z M38.428,292.352l-3.933-10.805l42.726-15.551c5.19-1.889,7.866-7.627,5.977-12.816 c-1.889-5.19-7.627-7.865-12.815-5.977l-42.727,15.551l-5.945-16.332c-1.697-4.663,0.716-9.838,5.379-11.534l195.62-71.2 c2.26-0.823,4.703-0.716,6.882,0.3c2.179,1.016,3.832,2.82,4.654,5.078l0.076,0.208l9.643,26.494l-41.687,15.172 c-5.19,1.889-7.866,7.627-5.977,12.816c1.478,4.062,5.313,6.583,9.397,6.583c1.135,0,2.291-0.195,3.419-0.606l41.687-15.172 l0.159,0.438c0.822,2.259,0.716,4.702-0.301,6.881c-1.016,2.179-2.819,3.832-5.078,4.654L49.964,297.731 c-2.26,0.822-4.702,0.715-6.882-0.3C40.903,296.415,39.25,294.611,38.428,292.352z M20.068,338.006h89.895v0.001l-24.424,24.424 c-2.306,2.305-5.37,3.574-8.63,3.574H20.068V338.006z M377.983,405.004H336.64c-5.522,0-10,4.477-10,10c0,5.523,4.478,10,10,10 h41.343v12.999H20.068v-51.997H76.91c8.602,0,16.687-3.35,22.77-9.432l38.566-38.566h186.539 c-5.032,5.332-9.198,11.575-12.207,18.564l-9.457,21.958c-6.927,16.082-22.716,26.475-40.226,26.475h-16.81 c-5.522,0-10,4.477-10,10c0,5.523,4.478,10,10,10h16.81c25.506,0,48.506-15.137,58.594-38.563l9.456-21.958 c6.926-16.082,22.715-26.475,40.226-26.475h6.812V405.004z M377.983,318.006H134.11c-0.003,0-0.007,0-0.01,0H50.668 c2.07-0.275,4.126-0.751,6.136-1.482l195.619-71.2c7.279-2.649,13.09-7.975,16.363-14.994c0.997-2.138,1.718-4.355,2.17-6.61 l90.075-32.784l16.934-3.487l1.54,4.232l-6.086,7.301c-2.28,2.735-2.934,6.477-1.715,9.823l13.796,37.903 c1.097,3.016,3.496,5.18,6.331,6.096h-31.06c-5.522,0-10,4.477-10,10v22.264c0,2.652,1.054,5.196,2.929,7.071l24.283,24.282 V318.006z M440.9,305.208c-1.875,1.875-2.929,4.419-2.929,7.071v123.931l-19.994,42.362l-19.995-42.363v-123.93 c0-2.652-1.054-5.196-2.929-7.071l-24.283-24.282v-8.123h94.412v8.123L440.9,305.208z M491.931,438.002H457.97v-99.995h33.961 V438.002z"/> </g> </g><g> <g> <path d="M117.44,236.221c-1.86-1.87-4.44-2.93-7.07-2.93c-2.63,0-5.21,1.06-7.07,2.93c-1.859,1.86-2.93,4.43-2.93,7.07 c0,2.63,1.07,5.21,2.93,7.07c1.86,1.86,4.44,2.93,7.07,2.93c2.63,0,5.21-1.07,7.07-2.93c1.859-1.86,2.93-4.44,2.93-7.07 S119.3,238.081,117.44,236.221z"/> </g> </g><g> <g> <path d="M196.739,192.144c-1.889-5.189-7.627-7.866-12.815-5.977l-40.147,14.612c-5.19,1.889-7.866,7.627-5.977,12.816 c1.477,4.061,5.312,6.583,9.397,6.583c1.136,0,2.29-0.195,3.419-0.606l40.147-14.612 C195.952,203.072,198.628,197.334,196.739,192.144z"/> </g> </g></symbol><symbol id="plug" viewBox="0 0 64 64"><title>plug</title><path d="m25 30h-1a1 1 0 0 0 -1 1v3a1 1 0 0 0 .293.707l1.707 1.707v2.586a1 1 0 0 0 .105.447l1.895 3.789v3.764a1 1 0 0 0 1 1h1v13a1 1 0 0 0 1 1h4a1 1 0 0 0 1-1v-13h1a1 1 0 0 0 1-1v-3.764l1.9-3.789a1 1 0 0 0 .1-.447v-2.586l1.707-1.707a1 1 0 0 0 .293-.707v-3a1 1 0 0 0 -1-1h-1v-9a1 1 0 0 0 -1-1h-4a1 1 0 0 0 -1 1v9h-2v-9a1 1 0 0 0 -1-1h-4a1 1 0 0 0 -1 1zm8 30h-2v-8h2zm0-10h-2v-2h2zm2-4h-6v-2h6zm0-24h2v8h-2zm-8 0h2v8h-2zm12 10v1.586l-1.707 1.707a1 1 0 0 0 -.293.707v2.764l-1.618 3.236h-6.764l-1.618-3.236v-2.764a1 1 0 0 0 -.293-.707l-1.707-1.707v-1.586z"/><path d="m29 34h6v2h-6z"/><path d="m29 38h6v2h-6z"/><path d="m36.87 2.507a1 1 0 0 0 -.87-.507h-5a1 1 0 0 0 -.874.514l-5 9a1 1 0 0 0 .874 1.486h4v4a1 1 0 0 0 .676.946 1.01 1.01 0 0 0 .324.054 1 1 0 0 0 .789-.386l7-9a1 1 0 0 0 -.789-1.614h-3.233l2.09-3.485a1 1 0 0 0 .013-1.008zm-.915 6.493-3.955 5.085v-2.085a1 1 0 0 0 -1-1h-3.3l3.89-7h2.644l-2.09 3.485a1 1 0 0 0 .856 1.515z"/><path d="m14 24h5v2h-5z"/><path d="m17 17h1.999v5h-1.999z" transform="matrix(.6 -.8 .8 .6 -8.399 22.205)"/><path d="m15.5 29.5h5v1.999h-5z" transform="matrix(.8 -.6 .6 .8 -14.7 16.9)"/><path d="m45 24h5v2h-5z"/><path d="m43.5 18.5h5v1.999h-5z" transform="matrix(.8 -.6 .6 .8 -2.502 31.491)"/><path d="m45 28h1.999v5h-1.999z" transform="matrix(.6 -.8 .8 .6 -5.996 49.01)"/></symbol><symbol id="fumigate" viewBox="0 0 512 512"><title>fumigate</title><path d="m120.981 345.523v-12.104c0-4.142-3.358-7.5-7.5-7.5s-7.5 3.358-7.5 7.5v12.104c0 4.143 3.358 7.5 7.5 7.5s7.5-3.358 7.5-7.5z"/><path d="m246.96 345.523v-12.104c0-4.142-3.358-7.5-7.5-7.5s-7.5 3.358-7.5 7.5v12.104c0 4.143 3.358 7.5 7.5 7.5s7.5-3.358 7.5-7.5z"/><path d="m198.731 350.09c2.722-3.123 2.396-7.86-.726-10.582-3.123-2.722-7.861-2.397-10.582.726-2.766 3.173-6.758 4.993-10.953 4.993s-8.187-1.82-10.952-4.993c-2.721-3.123-7.459-3.448-10.582-.727s-3.448 7.458-.727 10.582c11.78 13.518 32.754 13.505 44.522.001z"/><path d="m409.25 84.111c4.616-.237 9.164-2.092 12.681-5.609l33.175-33.175c8.563-8.563 8.563-22.496 0-31.059l-7.835-7.836c-8.747-8.747-22.654-8.405-31.059 0l-33.175 33.174c-3.518 3.518-5.373 8.066-5.61 12.682l-54.388 54.388c-4.251 4.25-6.592 9.901-6.592 15.912v73.017c-9.499 6.568-15.999 17.167-17.017 29.306-12.876-16.517-32.94-27.169-55.457-27.169h-8.753v-15.315c0-3.2 1.6-6.18 4.281-7.974 6.996-4.682 16.676-12.635 23.064-23.935 3.842-6.795 3.79-14.872-.138-21.605-2.802-4.803-7.178-8.21-12.287-9.764v-20.572c0-34.402-27.988-62.389-62.389-62.389h-22.564c-34.401 0-62.389 27.987-62.389 62.389v20.573c-5.109 1.553-9.485 4.96-12.287 9.763-3.928 6.734-3.98 14.811-.139 21.606 6.389 11.301 16.069 19.253 23.065 23.935 2.681 1.794 4.281 4.775 4.281 7.974v15.315h-8.753c-38.767 0-70.306 31.539-70.306 70.306v81.783c0 4.142 3.358 7.5 7.5 7.5s7.5-3.358 7.5-7.5v-57.159h245.621v124.398h-245.62v-37.239c0-4.142-3.358-7.5-7.5-7.5s-7.5 3.358-7.5 7.5v61.874c0 38.761 31.539 70.295 70.306 70.295h135.008c32.992 0 60.734-22.844 68.272-53.54 18.571 16.935 47.801 12.507 60.701-8.892 58.023-10.82 100.393-61.745 100.393-120.868 0-25.786-7.935-50.492-22.946-71.448-2.412-3.367-7.097-4.141-10.465-1.73-3.367 2.413-4.142 7.097-1.729 10.465 13.176 18.393 20.14 40.079 20.14 62.712 0 49.351-33.476 91.721-79.899 104.251.334-3.516.105-7.465.179-15.696 38.389-12.208 64.715-47.816 64.715-88.555s-26.326-76.348-64.715-88.556c-.073-8.193.156-12.168-.179-15.696 14.856 4.008 28.767 11.202 40.746 21.137 3.188 2.644 7.917 2.203 10.561-.986 2.645-3.188 2.203-7.917-.985-10.561-16.137-13.382-35.366-22.395-55.816-26.208-2.921-4.845-6.851-9.015-11.493-12.225v-63.695zm-15.606-33.897 33.175-33.175c2.721-2.721 7.124-2.721 9.845 0l7.836 7.836c2.714 2.714 2.714 7.131 0 9.845l-33.175 33.175c-1.902 1.902-4.809 1.425-6.145 0-1.14-1.14-6.085-6.085-5.769-5.769-6.062-6.106-6.658-6.281-6.968-8.101-.23-1.343.165-2.775 1.201-3.811zm-79.363 178.037c0-9.665 5.63-18.29 14.215-22.338 12.526-5.876 27.432-.255 33.026 12.398 3.193 7.22 1.821 5.594 2.099 96.918h-49.339c-.001-10.046-.001-86.978-.001-86.978zm56.839 139.41h-56.839v-37.431h56.839c10.32 0 18.715 8.396 18.715 18.716 0 10.319-8.395 18.715-18.715 18.715zm-253.321-269.084c0-26.13 21.259-47.389 47.389-47.389h22.564c26.13 0 47.389 21.259 47.389 47.389v19.623h-22.933v-19.623c0-13.485-10.971-24.457-24.457-24.457h-22.564c-13.485 0-24.456 10.971-24.456 24.457v19.623h-22.933v-19.623zm37.933 19.622v-19.622c0-5.214 4.242-9.457 9.456-9.457h22.564c5.214 0 9.457 4.242 9.457 9.457v19.623h-41.477zm-33.951 43.788c-5.645-3.777-13.41-10.114-18.35-18.851-1.71-3.026-.543-5.669.038-6.665.574-.984 2.278-3.272 5.702-3.272h1.128 37.933 56.477 37.933 1.128c3.424 0 5.129 2.288 5.703 3.272.581.996 1.748 3.639.037 6.665-4.939 8.736-12.705 15.073-18.349 18.851-6.85 4.583-10.938 12.224-10.938 20.44v15.315h-87.502v-15.315c-.002-8.215-4.091-15.856-10.94-20.44zm-68.121 115.685v-9.624c0-30.496 24.81-55.306 55.306-55.306h16.253 102.502 16.253c30.496 0 55.306 24.811 55.306 55.306v9.624zm190.314 219.328h-135.008c-30.496 0-55.306-24.805-55.306-55.295v-9.635h245.621v9.635c0 30.49-24.811 55.295-55.307 55.295zm94.976-43.179c-13.603 0-24.669-11.067-24.669-24.669v-46.491h49.339c.068 51.338.468 50.635-2.104 56.443-3.835 8.658-12.504 14.717-22.566 14.717zm89.385-125.12c0 32.526-20.014 61.15-49.715 72.655v-19.546c14.991-3.42 26.215-16.852 26.215-32.864 0-16.013-11.224-29.444-26.215-32.864v-60.035c29.701 11.504 49.715 40.128 49.715 72.654zm-96.887-139.401v-66.711c0-2.004.78-3.888 2.198-5.305l49.854-49.855c.1.1 2.178 2.178 10.61 10.609l-45.46 45.462c-1.407 1.406-2.197 3.314-2.197 5.303v60.498c-.054-.011-6.909-1.579-15.005-.001z"/></symbol></svg>